<?xml version="1.0" encoding="UTF-8"?>
<svg id="_レイヤー_1" data-name="レイヤー 1" xmlns="http://www.w3.org/2000/svg" width="27" height="25.7" viewBox="0 0 27 25.7">
  <path d="M12.87,13.69C1.42,17.8,0,10.47,0,10.47l2.29-.2-1.74-1.5s5.42-5.13,12.33,4.88l.05.02s-.02,0-.03,0c0,0,.01.02.02.03l-.05-.02Z" fill="#d69a91"/>
  <path d="M13.52,13.24C6.07,3.62,12.6,0,12.6,0l.9,2.12.89-2.12s6.55,3.57-.83,13.24v.05s0-.02-.02-.02c0,0-.01.02-.02.02v-.05Z" fill="#d69a91"/>
  <path d="M14.14,13.72c6.85-10.06,12.3-4.96,12.3-4.96l-1.74,1.51,2.29.19s-1.37,7.33-12.85,3.3l-.05.02s.01-.02.01-.03c0,0-.02,0-.03-.01l.05-.02Z" fill="#d69a91"/>
  <path d="M13.88,14.46c11.68,3.4,8.52,10.17,8.52,10.17l-1.97-1.18.53,2.24s-7.4.96-7.11-11.2l-.03-.04s.02,0,.03,0c0,0,0-.02,0-.03l.03.04Z" fill="#d69a91"/>
  <path d="M13.1,14.44c.37,12.16-7.04,11.25-7.04,11.25l.52-2.24-1.97,1.2s-3.2-6.74,8.46-10.22l.03-.04s0,.02,0,.03c0,0,.02,0,.03,0l-.03.04Z" fill="#d69a91"/>
</svg>